<?xml version="1.0" encoding="UTF-8" standalone="no"?>
<!DOCTYPE svg PUBLIC "-//W3C//DTD SVG 1.1//EN" "http://www.w3.org/Graphics/SVG/1.1/DTD/svg11.dtd">
<!-- Generated by graphviz version 2.40.1 (20161225.0304)
 -->
<!-- Title: Roadmap Pages: 1 -->
<svg width="218pt" height="467pt" viewBox="0.00 0.00 217.81 466.80" xmlns="http://www.w3.org/2000/svg" xmlns:xlink="http://www.w3.org/1999/xlink">
<g id="graph0" class="graph" transform="scale(1 1) rotate(0) translate(4 462.8)">
<title>Roadmap</title>
<g id="a_graph0"><a xlink:title="This is an example of what a road map might look like.&#xA;">
<polygon fill="#ffffff" stroke="transparent" points="-4,4 -4,-462.8 213.8056,-462.8 213.8056,4 -4,4"/>
<text text-anchor="middle" x="104.9028" y="-442.2" font-family="Arial" font-size="14.00" fill="#000000">Example Road Map</text>
</a>
</g>
<g id="clust2" class="cluster">
<title>cluster_Build_the_Team_6ad93544</title>
<g id="a_clust2"><a xlink:title="We don't yet have anyone, that's not gonna work...">
<polygon fill="none" stroke="#000000" stroke-width=".6" points="8,-248 8,-426 104.0184,-426 104.0184,-248 8,-248"/>
<text text-anchor="middle" x="56.0092" y="-414.8" font-family="Arial" font-size="8.00" fill="#000000">Build the Team</text>
</a>
</g>
</g>
<g id="clust3" class="cluster">
<title>cluster_Finish_the_Project_d134c72c</title>
<g id="a_clust3"><a xlink:title="We don't need other milestones, do we?">
<polygon fill="none" stroke="#000000" stroke-width=".6" points="17.8932,-8 17.8932,-240 95.1252,-240 95.1252,-8 17.8932,-8"/>
<text text-anchor="middle" x="56.5092" y="-228.8" font-family="Arial" font-size="8.00" fill="#000000">Finish the Project</text>
</a>
</g>
</g>
<!-- start -->
<g id="node1" class="node">
<title>start</title>
<g id="a_node1"><a xlink:title="This is the start of your roadmap.">
<polygon fill="#d3d3d3" stroke="#000000" points="197.912,-387.5623 170.912,-400 143.912,-387.5623 143.9372,-367.4377 197.8868,-367.4377 197.912,-387.5623"/>
<text text-anchor="middle" x="170.912" y="-379.6" font-family="Arial" font-size="8.00" fill="#000000">Start</text>
</a>
</g>
</g>
<!-- Build_the_Team_6ad93544 -->
<g id="node2" class="node">
<title>Build_the_Team_6ad93544</title>
<g id="a_node2"><a xlink:title="We don't yet have anyone, that's not gonna work...">
<polygon fill="#ffa500" stroke="#ffa500" points="205.7011,-346 136.1229,-346 136.1229,-310 205.7011,-310 205.7011,-346"/>
<text text-anchor="middle" x="170.912" y="-325.6" font-family="Arial" font-size="8.00" fill="#000000">Build the Team</text>
</a>
</g>
</g>
<!-- start&#45;&gt;Build_the_Team_6ad93544 -->
<g id="edge1" class="edge">
<title>start-&gt;Build_the_Team_6ad93544</title>
<path fill="none" stroke="#000000" d="M170.912,-367.4321C170.912,-363.7727 170.912,-360.1132 170.912,-356.4537"/>
<polygon fill="#000000" stroke="#000000" points="174.4121,-356.1406 170.912,-346.1406 167.4121,-356.1407 174.4121,-356.1406"/>
</g>
<!-- Finish_the_Project_d134c72c -->
<g id="node3" class="node">
<title>Finish_the_Project_d134c72c</title>
<g id="a_node3"><a xlink:title="We don't need other milestones, do we?">
<polygon fill="#ffa500" stroke="#ffa500" points="209.6995,-160 132.1245,-160 132.1245,-124 209.6995,-124 209.6995,-160"/>
<text text-anchor="middle" x="170.912" y="-139.6" font-family="Arial" font-size="8.00" fill="#000000">Finish the Project</text>
</a>
</g>
</g>
<!-- Build_the_Team_6ad93544&#45;&gt;Finish_the_Project_d134c72c -->
<g id="edge2" class="edge">
<title>Build_the_Team_6ad93544-&gt;Finish_the_Project_d134c72c</title>
<path fill="none" stroke="#000000" d="M170.912,-309.9707C170.912,-263.4488 170.912,-216.9268 170.912,-170.4048"/>
<polygon fill="#000000" stroke="#000000" points="174.4121,-170.164 170.912,-160.1641 167.4121,-170.1641 174.4121,-170.164"/>
</g>
<!-- Team_Lead_e3b0c442 -->
<g id="node4" class="node">
<title>Team_Lead_e3b0c442</title>
<g id="a_node4"><a xlink:title="This person needs to know enough about this domain to be able to run with the project.">
<polygon fill="#c0c0c0" stroke="#c0c0c0" points="84.4679,-400 27.5505,-400 27.5505,-364 84.4679,-364 84.4679,-400"/>
<text text-anchor="middle" x="56.0092" y="-379.6" font-family="Arial" font-size="8.00" fill="#000000">Team Lead</text>
</a>
</g>
</g>
<!-- Team_Lead_e3b0c442&#45;&gt;Build_the_Team_6ad93544 -->
<g id="edge3" class="edge">
<title>Team_Lead_e3b0c442-&gt;Build_the_Team_6ad93544</title>
<path fill="none" stroke="#c0c0c0" stroke-width=".4" d="M84.4121,-368.6517C98.7482,-361.9143 116.359,-353.6379 131.9402,-346.3153"/>
<polygon fill="#c0c0c0" stroke="#c0c0c0" stroke-width=".4" points="132.8299,-347.4441 135.8546,-344.4757 131.6389,-344.91 132.8299,-347.4441"/>
</g>
<!-- Senior_Engineer_1_e3b0c442 -->
<g id="node5" class="node">
<title>Senior_Engineer_1_e3b0c442</title>
<polygon fill="#c0c0c0" stroke="#c0c0c0" points="96.0276,-346 15.9908,-346 15.9908,-310 96.0276,-310 96.0276,-346"/>
<text text-anchor="middle" x="56.0092" y="-325.6" font-family="Arial" font-size="8.00" fill="#000000">Senior Engineer 1</text>
</g>
<!-- Senior_Engineer_1_e3b0c442&#45;&gt;Build_the_Team_6ad93544 -->
<g id="edge4" class="edge">
<title>Senior_Engineer_1_e3b0c442-&gt;Build_the_Team_6ad93544</title>
<path fill="none" stroke="#c0c0c0" stroke-width=".4" d="M96.1966,-328C107.7242,-328 120.274,-328 131.7396,-328"/>
<polygon fill="#c0c0c0" stroke="#c0c0c0" stroke-width=".4" points="131.9108,-329.4001 135.9108,-328 131.9107,-326.6001 131.9108,-329.4001"/>
</g>
<!-- Intern_1__50_e3b0c442 -->
<g id="node6" class="node">
<title>Intern_1__50_e3b0c442</title>
<g id="a_node6"><a xlink:title="This should be cheaper than hiring a proper team (right?).">
<polygon fill="#c0c0c0" stroke="#c0c0c0" points="84.4735,-292 27.5449,-292 27.5449,-256 84.4735,-256 84.4735,-292"/>
<text text-anchor="middle" x="56.0092" y="-271.6" font-family="Arial" font-size="8.00" fill="#000000">Intern 1..50</text>
</a>
</g>
</g>
<!-- Intern_1__50_e3b0c442&#45;&gt;Build_the_Team_6ad93544 -->
<g id="edge5" class="edge">
<title>Intern_1__50_e3b0c442-&gt;Build_the_Team_6ad93544</title>
<path fill="none" stroke="#c0c0c0" stroke-width=".4" d="M84.4121,-287.3483C98.7482,-294.0857 116.359,-302.3621 131.9402,-309.6847"/>
<polygon fill="#c0c0c0" stroke="#c0c0c0" stroke-width=".4" points="131.6389,-311.09 135.8546,-311.5243 132.8299,-308.5559 131.6389,-311.09"/>
</g>
<!-- MVP_e3b0c442 -->
<g id="node7" class="node">
<title>MVP_e3b0c442</title>
<g id="a_node7"><a xlink:title="Who needs a polished product? Let's just ship the MVP and call it done.">
<polygon fill="#c0c0c0" stroke="#c0c0c0" points="83.0092,-214 29.0092,-214 29.0092,-178 83.0092,-178 83.0092,-214"/>
<text text-anchor="middle" x="56.0092" y="-193.6" font-family="Arial" font-size="8.00" fill="#000000">MVP</text>
</a>
</g>
</g>
<!-- MVP_e3b0c442&#45;&gt;Finish_the_Project_d134c72c -->
<g id="edge6" class="edge">
<title>MVP_e3b0c442-&gt;Finish_the_Project_d134c72c</title>
<path fill="none" stroke="#c0c0c0" stroke-width=".4" d="M83.2396,-183.2028C96.8213,-176.8198 113.5532,-168.9565 128.7469,-161.816"/>
<polygon fill="#c0c0c0" stroke="#c0c0c0" stroke-width=".4" points="129.549,-162.986 132.5737,-160.0176 128.358,-160.4519 129.549,-162.986"/>
</g>
<!-- Marketing_e3b0c442 -->
<g id="node8" class="node">
<title>Marketing_e3b0c442</title>
<polygon fill="#c0c0c0" stroke="#c0c0c0" points="83.0092,-160 29.0092,-160 29.0092,-124 83.0092,-124 83.0092,-160"/>
<text text-anchor="middle" x="56.0092" y="-139.6" font-family="Arial" font-size="8.00" fill="#000000">Marketing</text>
</g>
<!-- Marketing_e3b0c442&#45;&gt;Finish_the_Project_d134c72c -->
<g id="edge7" class="edge">
<title>Marketing_e3b0c442-&gt;Finish_the_Project_d134c72c</title>
<path fill="none" stroke="#c0c0c0" stroke-width=".4" d="M83.2396,-142C96.4636,-142 112.674,-142 127.5432,-142"/>
<polygon fill="#c0c0c0" stroke="#c0c0c0" stroke-width=".4" points="127.6979,-143.4001 131.6979,-142 127.6978,-140.6001 127.6979,-143.4001"/>
</g>
<!-- VC_Funding_e3b0c442 -->
<g id="node9" class="node">
<title>VC_Funding_e3b0c442</title>
<polygon fill="#c0c0c0" stroke="#c0c0c0" points="85.2417,-106 26.7767,-106 26.7767,-70 85.2417,-70 85.2417,-106"/>
<text text-anchor="middle" x="56.0092" y="-85.6" font-family="Arial" font-size="8.00" fill="#000000">VC Funding</text>
</g>
<!-- VC_Funding_e3b0c442&#45;&gt;Finish_the_Project_d134c72c -->
<g id="edge8" class="edge">
<title>VC_Funding_e3b0c442-&gt;Finish_the_Project_d134c72c</title>
<path fill="none" stroke="#c0c0c0" stroke-width=".4" d="M85.3013,-101.7662C98.5411,-107.9884 114.4317,-115.4564 128.9086,-122.26"/>
<polygon fill="#c0c0c0" stroke="#c0c0c0" stroke-width=".4" points="128.3406,-123.5399 132.5562,-123.9742 129.5315,-121.0058 128.3406,-123.5399"/>
</g>
<!-- Yacht_ea55167b -->
<g id="node10" class="node">
<title>Yacht_ea55167b</title>
<polygon fill="#c0c0c0" stroke="#c0c0c0" points="83.0092,-52 29.0092,-52 29.0092,-16 83.0092,-16 83.0092,-52"/>
<text text-anchor="middle" x="56.0092" y="-31.6" font-family="Arial" font-size="8.00" fill="#000000">Yacht</text>
</g>
<!-- Yacht_ea55167b&#45;&gt;Finish_the_Project_d134c72c -->
<g id="edge9" class="edge">
<title>Yacht_ea55167b-&gt;Finish_the_Project_d134c72c</title>
<path fill="none" stroke="#c0c0c0" stroke-width=".4" d="M83.0582,-46.9272C90.2213,-50.9467 97.7094,-55.7247 104.0184,-61 124.8744,-78.4388 144.1224,-103.0318 156.564,-120.5351"/>
<polygon fill="#c0c0c0" stroke="#c0c0c0" stroke-width=".4" points="155.512,-121.4729 158.96,-123.937 157.8012,-119.8606 155.512,-121.4729"/>
</g>
</g>
</svg>